<svg id="svg" xmlns="http://www.w3.org/2000/svg" xmlns:xlink="http://www.w3.org/1999/xlink" width="400" height="400.6849315068493" viewBox="0, 0, 400,400.6849315068493"><g id="svgg"><path id="path0" d="M372.891 1.720 C 371.791 2.200,368.271 4.642,365.068 7.147 C 361.866 9.652,357.570 12.975,355.520 14.531 C 353.471 16.086,351.159 17.897,350.383 18.553 C 349.607 19.210,342.962 24.449,335.616 30.195 C 328.271 35.942,317.175 44.699,310.959 49.655 C 304.743 54.612,297.073 60.647,293.914 63.067 C 290.755 65.486,286.569 68.699,284.611 70.205 C 280.410 73.439,253.303 94.643,246.707 99.854 C 238.607 106.254,235.004 108.904,234.402 108.904 C 234.079 108.904,233.820 104.204,233.827 98.459 C 233.856 74.552,220.189 44.521,209.281 44.521 C 201.117 44.521,177.966 82.887,172.806 104.966 L 170.925 113.014 139.505 113.014 C 112.043 113.014,107.791 113.153,105.760 114.116 C 103.749 115.070,79.122 139.843,51.695 168.501 C 47.184 173.215,36.558 184.249,28.082 193.022 C 10.442 211.280,9.419 212.634,11.199 215.351 C 13.210 218.420,14.144 218.493,51.072 218.493 C 92.003 218.493,88.786 217.592,81.370 226.978 C 78.657 230.411,73.443 237.072,69.781 241.781 C 66.120 246.490,59.348 255.120,54.733 260.959 C 50.117 266.798,41.864 277.277,36.392 284.247 C 30.921 291.216,21.650 302.876,15.791 310.159 C 3.000 326.056,2.748 326.427,2.743 329.405 C 2.739 332.064,60.627 391.163,65.918 393.901 C 69.880 395.951,195.593 395.623,197.876 393.556 C 200.473 391.206,200.804 388.217,204.149 337.005 C 204.923 325.149,205.647 315.358,205.757 315.248 C 205.867 315.138,209.163 315.697,213.081 316.490 C 218.234 317.533,224.565 318.091,235.959 318.507 C 255.651 319.224,251.321 317.383,291.781 342.242 C 319.869 359.500,335.804 368.649,338.377 368.994 C 341.319 369.388,340.418 369.850,356.507 359.705 C 379.968 344.913,385.149 341.104,385.802 338.168 C 385.988 337.330,388.670 326.781,391.761 314.726 C 395.581 299.826,397.278 292.027,397.061 290.370 C 396.712 287.712,393.786 283.487,370.394 251.861 C 362.810 241.608,352.091 227.055,346.574 219.521 C 341.056 211.986,329.707 196.615,321.353 185.363 C 312.999 174.110,306.164 164.332,306.164 163.633 C 306.164 162.934,312.314 150.103,319.830 135.120 C 351.926 71.137,382.192 9.243,382.188 7.597 C 382.180 3.422,376.794 0.018,372.891 1.720 M343.836 47.270 C 343.836 47.651,343.529 48.499,343.154 49.153 C 342.779 49.807,331.395 72.765,317.857 100.171 C 298.720 138.909,292.965 149.998,291.997 149.993 C 291.313 149.989,282.534 144.518,272.488 137.835 C 262.442 131.153,252.810 124.845,251.084 123.818 C 247.038 121.412,247.127 120.652,251.881 117.035 C 256.738 113.341,296.197 82.523,301.370 78.385 C 340.381 47.175,343.836 44.644,343.836 47.270 M212.087 72.432 C 215.593 81.863,215.987 83.837,216.296 93.472 C 216.466 98.801,216.236 106.125,215.777 110.003 C 215.054 116.100,215.087 117.227,216.039 119.069 C 217.304 121.515,217.255 121.478,229.795 129.634 C 235.068 133.065,244.161 139.008,250.000 142.840 C 255.839 146.673,266.483 153.648,273.652 158.340 C 289.462 168.687,282.454 160.438,327.956 222.260 C 337.937 235.822,349.094 250.925,352.748 255.822 C 378.372 290.163,379.580 291.941,379.273 294.863 C 378.994 297.517,373.898 317.665,371.217 326.712 C 369.972 330.916,369.678 331.303,365.942 333.649 C 363.766 335.016,356.915 339.408,350.716 343.410 C 344.518 347.411,338.988 350.685,338.429 350.685 C 337.278 350.685,338.165 351.206,298.288 327.120 C 263.116 305.876,262.037 305.257,257.782 303.871 C 253.077 302.338,244.213 301.373,234.607 301.348 C 200.917 301.260,180.396 285.555,169.750 251.712 C 165.793 239.132,163.833 236.312,159.041 236.304 C 153.078 236.294,150.671 241.114,152.374 249.656 C 156.953 272.629,169.308 292.812,185.163 303.217 L 189.846 306.290 189.435 310.166 C 189.210 312.297,188.722 318.048,188.353 322.945 C 187.638 332.417,184.247 378.154,184.247 378.328 C 184.247 378.385,159.141 378.430,128.456 378.428 L 72.665 378.425 56.709 362.603 C 47.934 353.902,36.824 342.991,32.021 338.356 C 21.717 328.415,21.886 329.270,28.596 321.078 C 31.515 317.514,39.760 307.117,46.918 297.973 C 54.075 288.830,63.709 276.530,68.326 270.640 C 72.942 264.750,78.045 258.236,79.664 256.164 C 81.284 254.092,84.930 249.469,87.767 245.890 C 90.603 242.312,98.347 232.295,104.975 223.630 C 111.603 214.966,120.903 202.945,125.641 196.918 C 130.380 190.890,137.398 181.952,141.237 177.055 C 150.063 165.795,154.896 159.678,164.738 147.307 C 169.064 141.870,172.603 137.170,172.603 136.862 C 172.603 136.554,173.219 136.301,173.973 136.301 C 174.805 136.301,175.342 136.758,175.342 137.465 C 175.342 141.675,182.037 158.156,184.618 160.298 C 187.784 162.925,193.662 160.516,196.528 155.417 L 198.035 152.737 194.980 146.060 C 184.970 124.182,188.360 99.564,204.718 75.342 C 206.626 72.517,208.194 69.820,208.203 69.349 C 208.251 66.808,210.727 68.773,212.087 72.432 M155.479 130.794 C 155.479 131.155,152.937 134.728,149.829 138.733 C 146.721 142.739,142.329 148.406,140.068 151.328 C 137.808 154.249,131.167 162.774,125.310 170.272 C 119.454 177.770,114.060 184.713,113.324 185.702 C 112.588 186.691,109.551 190.620,106.575 194.435 L 101.164 201.370 73.185 201.370 C 48.771 201.370,45.205 201.239,45.205 200.342 C 45.205 199.777,45.459 199.315,45.769 199.315 C 46.079 199.315,52.934 192.303,61.002 183.733 C 69.070 175.163,79.373 164.302,83.897 159.598 C 99.500 143.376,104.624 138.001,108.229 134.075 L 111.846 130.137 133.662 130.137 C 147.127 130.137,155.479 130.388,155.479 130.794 M235.743 190.879 C 233.882 191.624,233.459 194.508,234.913 196.549 C 236.068 198.172,246.567 205.914,266.438 219.796 C 268.887 221.507,272.402 224.087,274.250 225.530 C 278.381 228.755,281.839 228.907,283.498 225.937 C 285.119 223.036,273.603 195.114,269.433 191.834 C 267.673 190.450,238.858 189.633,235.743 190.879 " stroke="none" fill="inherit" fill-rule="evenodd"></path></g></svg>