<?xml version="1.0" standalone="no"?>
<!DOCTYPE svg PUBLIC "-//W3C//DTD SVG 20010904//EN"
 "http://www.w3.org/TR/2001/REC-SVG-20010904/DTD/svg10.dtd">
<svg version="1.0" xmlns="http://www.w3.org/2000/svg"
 width="600.000000pt" height="600.000000pt" viewBox="0 0 600.000000 600.000000"
 preserveAspectRatio="xMidYMid meet">

<g transform="translate(0.000000,600.000000) scale(0.100000,-0.100000)"
fill="currentColor" stroke="none">
<path d="M5231 5758 c-113 -112 -723 -723 -1357 -1358 l-1151 -1155 -124 42
c-68 23 -190 64 -271 92 -130 45 -178 58 -178 48 0 -2 20 -75 45 -162 25 -87
44 -159 42 -161 -2 -2 -125 -38 -273 -79 -410 -113 -362 -92 -445 -193 -198
-239 -312 -481 -355 -750 -9 -57 -14 -139 -12 -183 2 -43 2 -79 0 -79 -15 0
-124 298 -156 427 -50 202 -61 294 -60 528 0 185 4 239 23 339 41 219 100 396
193 578 426 840 1339 1284 2250 1093 62 -13 147 -35 188 -49 41 -14 85 -26 97
-26 15 0 98 77 272 250 138 138 251 254 251 259 0 11 -191 100 -313 145 -147
55 -321 103 -475 130 -149 27 -454 50 -548 42 -33 -3 -99 -8 -149 -11 -351
-24 -773 -155 -1095 -341 -764 -438 -1268 -1192 -1385 -2068 -61 -455 8 -963
190 -1401 88 -214 231 -455 383 -645 98 -123 309 -333 442 -440 280 -224 621
-401 961 -499 532 -153 1143 -148 1657 15 492 155 930 443 1258 827 79 92 214
275 214 290 0 3 -44 -8 -97 -24 -54 -16 -183 -47 -288 -69 -104 -23 -199 -46
-210 -51 -11 -5 -76 -54 -145 -109 -73 -58 -134 -100 -147 -100 -19 0 -324 46
-426 65 -24 4 -59 -19 -246 -160 -120 -91 -225 -165 -233 -165 -8 0 -41 9 -74
21 -56 19 -68 20 -259 10 -209 -11 -400 -3 -545 22 -90 16 -87 17 140 48 93
13 170 27 170 31 0 3 -81 129 -179 279 l-180 272 22 27 c69 85 351 385 361
384 6 -1 162 -45 346 -98 184 -52 421 -119 525 -149 l190 -53 106 -77 c137
-99 146 -103 192 -84 98 42 234 164 279 251 29 57 48 131 48 192 0 58 23 31
-395 474 -307 326 -415 443 -415 451 0 4 59 128 131 275 323 662 358 733 704
1464 98 206 200 422 227 480 28 58 67 141 88 185 21 44 97 206 170 360 148
314 250 534 250 540 0 22 -52 -23 -229 -197z"/>
<path d="M5172 4288 c-102 -223 -262 -590 -268 -613 -3 -13 10 -67 30 -126 68
-201 111 -377 126 -518 9 -82 12 -89 136 -319 192 -356 432 -772 446 -772 13
0 68 192 92 327 34 183 41 274 40 523 0 211 -4 279 -22 395 -51 329 -151 615
-323 928 -89 162 -178 307 -188 307 -5 0 -36 -60 -69 -132z"/>
</g>
</svg>
